<?xml version='1.0' encoding='utf-8'?>
<svg xmlns="http://www.w3.org/2000/svg" viewBox="0 0 3014 3014"> <path transform="scale(2.9441)" d="m-0-0h1024v1024h-1024v-1024z" fill="#FEFEFE"/> <path transform="scale(2.9441)" d="m511.56 94.963 19.898 31.854 38.975 63.237 7.135 11.37c0.572 0.918 1.558 3.079 2.325 3.737 1.835 1.573 6.15 2.525 8.551 3.435l16.642 6.964c30.456 14.296 58.474 35.725 79.531 61.998 12.532-11.979 24.65-24.037 35.089-37.94 8.941-11.908 16.511-24.74 24.64-37.198l-1.478 23.069c-2.473 23.616-6.95 46.556-13.312 69.417-3.398 12.207-7.503 23.96-12.159 35.742-0.987 2.499-2.013 4.941-3.227 7.34-0.301 0.596-1.658 2.664-1.678 3.231-0.029 0.836 1.16 3.11 1.52 4.043l5.423 14.274c4.263 11.658 7.703 24.454 9.573 36.738l1.103 10.787c0.058 0.775 0.411 2.438 0.225 3.128-0.448 1.657-4.118 4.892-5.374 6.265-3.67 4.012-7.281 7.962-10.519 12.341l134.72-0.346-70.62 69.067 0.543 2.647c2.882 15.683 3.93 31.977 3.967 47.898 0.212 92.207-44.879 178.45-121.95 229.21-15.329 10.096-31.57 18.793-48.527 25.853l-16.571 6.351c-2.256 0.788-6.578 1.574-8.454 2.842-0.616 0.416-1.752 2.679-2.2 3.366l-7.203 11.099-46.295 72.364-19.967 31.524-4.435-6.713-58.991-91.202-9.597-15.058c-0.696-1.028-1.836-3.168-2.76-3.926-0.444-0.365-2.041-0.657-2.698-0.871l-8.677-2.881-20.928-8.059c-41.579-17.607-79.538-48.26-106.69-84.21-38.304-50.723-58.353-113.05-56.501-176.65 0.433-14.895 2.49-29.421 4.547-44.139l-72.971-69.28 140.89 2.442-15.342-18.111c-1.177-1.482-3.717-4.233-4.246-5.917-0.553-1.76 0.497-5.73 0.806-7.662 2.228-13.932 5.438-27.7 9.787-41.126l3.989-11.664c0.348-0.954 1.381-2.88 1.381-3.747-1e-3 -1.144-1.237-3.369-1.687-4.448l-4.137-10.484c-4.587-12.222-8.538-24.851-11.726-37.517-5.343-21.232-9.27-42.276-12.396-63.939-1.244-8.619-1.479-17.372-3.057-25.92 4.799 6.233 8.851 13.095 13.344 19.554 14.174 20.374 29.885 41.795 48.946 57.88 21.577-25.248 47.595-46.56 78.064-60.261l18.221-7.515c1.883-0.7 7.331-1.906 8.651-3.046 0.581-0.502 1.413-2.361 1.841-3.071l5.162-8.504 31.468-52.106 29.42-47.56z"/> <path transform="scale(2.9441)" d="m611.17 607.25 0.287 0.391c0.557 7.481-13.477 24.188-18.286 30.306-0.516-6.285 0.243-13.177 0.338-19.53 6.114-2.268 12.373-7.32 17.661-11.167z" fill="#FEFEFE"/> <path transform="scale(2.9441)" d="m403.9 597.76 26.478 20.357 0.302 19.352c-10.706-12.028-19.607-25.302-26.78-39.709z" fill="#FEFEFE"/> <path transform="scale(2.9441)" d="m609.45 560.75c0.28 0.284 0.509 0.673 0.741 1l1.605 27.03c0.084 2.288 0.638 5.746 0.098 7.924-0.167 0.673-0.888 0.998-1.408 1.415-4.677 3.754-9.673 7.175-14.891 10.131-1.065 0.263-0.544 0.273-1.564 0l-0.968-37.629 16.387-9.871z" fill="#FEFEFE"/> <path transform="scale(2.9441)" d="m410.57 559.73 19.982 11.655-0.015 37.963-12.248-7.62c-2.529-1.627-5.471-3.404-7.454-5.687-2-2.303-0.504-31.958-0.265-36.311z" fill="#FEFEFE"/> <path transform="scale(2.9441)" d="m511.21 133.75c2.809 1.412 11.199 16.955 13.349 20.471l18.096 29.273c3.227 5.304 6.674 10.558 9.385 16.149l-5.838-0.759c-3.552-4.474-6.477-9.848-9.476-14.718-7.992-12.979-15.373-26.563-24.322-38.916-0.714-0.624-0.294-0.392-1.286-0.647l-33.232 54.087c-1.849 0.586-3.966 0.673-5.895 0.917-0.194-1.407 34.971-59.607 39.219-65.857z" fill="#FEFEFE"/> <path transform="scale(2.9441)" d="m435.83 620.98 30.655 12.936 0.43 41.147-6.163-5.249-16.794-16.95c-1.834-1.93-4.962-4.607-6.222-6.907-0.433-0.791-0.427-3.949-0.529-4.989l-1.377-19.988z" fill="#FEFEFE"/> <path transform="scale(2.9441)" d="m587.58 621.32-0.206 5.356-1.152 14.504c-0.09 1.108 0.052 3.315-0.349 4.24-0.781 1.803-3.339 4.123-4.69 5.63-7.76 8.658-16.045 16.719-24.665 24.512l-0.068-41.282c10.582-3.046 21.399-7.817 31.13-12.96z" fill="#FEFEFE"/> <path transform="scale(2.9441)" d="m438.72 574.83 27.272 10.226c-0.023 6.524 1.639 35.444-1e-3 38.839l-1.633-0.145-28.32-11.914c-0.103-12.304 0.558-24.878 2.682-37.006z" fill="#FEFEFE"/> <path transform="scale(2.9441)" d="m585.73 573.75 0.788 0.5c2.482 12.901 2.011 25.501 1.166 38.533l-29.075 11.307-1.609 0.34c-1.155-1.376-0.536-7.228-0.526-9.231l-0.095-30.416 29.351-11.033z" fill="#FEFEFE"/> <path transform="scale(2.9441)" d="m544.85 587.57c1.215-0.163 1.806-0.492 2.896 0.163 2.645 12.569 2.836 25.583 3.067 38.375l-28.701 7.765-5.855 0.913-0.351-40.742 28.944-6.474z" fill="#FEFEFE"/> <path transform="scale(2.9441)" d="m474.68 587.11 33.647 7.112 0.085 28.444c-9e-3 3.996 0.542 8.728-0.353 12.585l-1.306-0.128-34.304-9.468 2.231-38.545z" fill="#FEFEFE"/> <path transform="scale(2.9441)" d="m685.72 448.67 113.1 0.26c-0.304 2.735-40.59 38.442-46.356 43.826l-29.802 28.416-40.911 38.293-7.472 7.033-0.861-7.361 111.8-104.62-97.315-0.13-2.186-5.715z" fill="#FEFEFE"/> <path transform="scale(2.9441)" d="m222.25 447.58 111.2 1.286-3.407 7.644-91.17-2.106c5.944 7.133 13.293 13.302 20.001 19.725l43.237 40.748 40.057 38.561c1.44 1.446 4.433 4.003 5.179 5.773 0.502 1.189-5e-3 5.338-7e-3 6.838l-125.09-118.47z" fill="#FEFEFE"/> <path transform="scale(2.9441)" d="m548.05 636.75 1.451-0.291 0.787 0.573 0.674 43.148c-1.544 2.035-4.289 3.802-6.299 5.413-8.48 6.794-17.349 12.96-26.417 18.936l-1.29 0.829-0.71-0.452 0.088-62.342 31.716-5.814z" fill="#FEFEFE"/> <path transform="scale(2.9441)" d="m472.78 636.17 35.382 6.425 0.277 63.019c-12.564-6.691-25.291-16.207-36.013-25.629l0.354-43.815z" fill="#FEFEFE"/> <path transform="scale(2.9441)" d="m636.52 698.45c-1.421 3.67-3.817 7.246-5.715 10.71-7.351 13.417-15.603 25.896-23.996 38.66l-52.951 79.659-24.886 38.024c-5.488 8.565-10.981 18.486-17.563 26.189l-119.89-180.51-4.482-9.574c13.933 14.002 24.151 31.875 35.474 47.95l88.879 132.27c6.35-8.46 12.001-17.764 17.726-26.668l14.207-21.346 43.923-65.656c15.262-23.613 30.114-49.036 49.272-69.703z" fill="#FEFEFE"/> <path transform="scale(2.9441)" d="m301.81 550.12 37.08 34.493 7.203 6.754c0.579 0.543 2.092 1.645 2.389 2.241 0.115 0.232-5e-3 1.932-5e-3 2.201l-9e-3 7.736-0.017 42.168-0.012 7.725c-1e-3 0.753-0.211 2.453-5e-3 3.119 0.704 2.275 19.255 21.023 22.754 24.624l-1.698 21.564c-0.109 1.14 0.1 1.482-0.736 2.323-4.97-4.927-9.395-10.347-13.869-15.72-23.002-27.618-40.535-61.071-48.2-96.38-3.083-14.203-4.162-28.373-4.875-42.848z" fill="#FEFEFE"/> <path transform="scale(2.9441)" d="m721.31 548.95c0.397 5.002-0.25 10.383-0.512 15.402-2.025 38.749-17.03 77.115-39.151 108.74-7.874 11.258-16.928 22.358-27.151 31.562-0.913-0.71-1.126-3.257-1.383-4.465-0.417-2.317-3.825-17.241-3.51-18.136 0.549-1.557 3.401-3.891 4.627-5.173l17.978-18.564c0.815-0.897 2.882-2.715 3.284-3.699 0.189-0.464-4e-3 -2.194-6e-3 -2.73l-0.143-10.627-0.757-47.137 46.724-45.173z" fill="#FEFEFE"/> <path transform="scale(2.9441)" d="m263.15 513.07 15.229 14.257c0.937 0.88 4.602 3.798 4.883 5.033 0.148 0.648-0.144 2.289-0.187 3.017l-0.443 8.315 0.082 15.53c1.649 31.309 9.293 62.29 22.713 90.668 15.014 31.75 37.44 60.188 64.369 82.669 3.555 2.968 7.42 5.792 11.319 8.294 3.172 2.036 8.07 4.139 10.65 6.758 1.732 1.757 3.098 4.169 4.484 6.217l7.681 11.39c4.558 6.769 10.022 13.602 13.889 20.762l-0.683 0.273c-39.223-16.558-72.941-41.78-99.626-74.985-28.332-35.256-48.74-80.523-54.55-125.54-3.142-24.339-2.45-48.339 0.19-72.66z" fill="#FEFEFE"/> <path transform="scale(2.9441)" d="m760.64 512.25c0.586 0.09 0.256-0.02 0.913 0.5 6.059 46.974-0.498 93.587-18.6 137.25-24.933 60.138-74.591 108-134.44 132.91l-1.76 0.464-0.216-0.626c4.391-7.682 9.788-14.977 14.712-22.333 2.86-4.274 6.121-10.491 9.92-13.869 4.394-3.907 10.494-6.827 15.36-10.285 11.314-8.044 21.892-17.516 31.456-27.559 34.353-36.075 56.846-85.769 62.402-135.25 1.154-10.279 1.557-20.527 1.67-30.866 0.04-3.684-0.53-7.759-0.262-11.376 0.137-1.855 16.479-16.675 18.848-18.958z" fill="#FEFEFE"/> <path transform="scale(2.9441)" d="m498.18 215.7c2.966-0.469 6.478-0.249 9.496-0.286l17.203 0.253c45.17 2.889 89.998 21.876 123.64 52.099 7.811 7.019 14.786 14.968 21.695 22.856-19.612 15.813-40.904 28.073-63.879 38.321l-28.211 11.382 57.124-44.767-83.908 42.929 49.522-77.391c-2.697 2.135-5.096 5.096-7.457 7.608l-14.808 16.132-59.955 67.858-6.748 7.883-91.543-101.6c0.715 2.216 2.731 4.703 4.025 6.653l8.048 12.403 22.448 36.939 14.871 22.539-79.817-41.145 54.465 43.99c-23.49-9.394-46.952-19.204-68.645-32.378-7.971-4.841-15.577-10.508-22.992-16.156 0.415-1.194 1.365-2.104 2.181-3.059 36.586-42.819 87.174-68.474 143.25-73.064z" fill="#FEFEFE"/> <path transform="scale(2.9441)" d="m724.55 256.07c-2.182 9.354-6.381 18.468-10.19 27.263-5.855 13.518-12.141 27.174-19.897 39.723-9.154 14.81-20.678 28.556-33.273 40.548-7.398 7.044-16.009 12.124-23.782 18.554l58.315-28.191 9.902 28.572c0.842 2.863 5.272 19.924 4.843 21.964-0.05 0.237-1.75 1.787-1.986 2.032l-6.039 6.827c-8.097 9.892-16.419 20.376-22.451 31.675-0.422 0.79-1.502 2.435-1.601 3.225-0.019 0.15 0.604 1.421 0.674 1.586l3.079 7.532c5.209 13.169 11.095 26.504 15.255 40.021-8.326 12.103-19.275 23.721-29.387 34.367l-8.3 8.692c-1.31 1.367-3.149 2.879-4.229 4.404-0.914 1.29 0.228 74.024 0.276 82.074l-0.033 14.376c-0.02 1.598 0.273 4.067-0.082 5.587-0.215 0.923-1.915 2.812-2.562 3.629l-8.011 9.918-2.77-40.562-5.298 15.332-11.901 35.185c-3.732 9.491-8.339 18.763-12.905 27.877-2.56 5.11-4.938 10.475-7.961 15.326l7.972-56.309-56.907 121.35c-0.111-5.624 1.682-12.135 2.696-17.689l5.112-29.773c1.203-6.69 3.076-13.644 3.422-20.411l-50.508 108.58 0.21-103.75c6.334-3.14 12.376-7.698 18.188-11.729 36.104-25.041 69.3-59.72 90.372-98.391 4.196-7.701 8.412-15.849 11.208-24.174 3.301-9.828 4.876-21.177 6.1-31.469l1.226-10.705c0.134-1.179 0.09-3.31 0.495-4.371 0.368-0.959 8.921-4.231 10.492-5.006 10.86-5.354 19.558-12.541 27.442-21.65l-14 7.752c-7.317 3.507-15.115 6.653-22.919 8.862-3.283 0.929-6.907 2.064-10.335 2.17-4.704 0.144-11.218-2.753-15.799-4.201l-45.259-15.295c3.605 2.841 8.054 5.055 12.056 7.322l33.582 16.918c-3.745 4.222-9.239 7.902-13.89 11.086-16.484 11.284-34.665 19.045-53.09 26.506-13.943 5.646-27.693 10.856-40.516 18.818-10.54-7.44-23.016-12.293-34.545-18.024l-73.9-36.096c22.408-9.803 45.166-22.843 63.11-39.559l-13.743 8.509c-20.279 11.321-40.924 19.623-63.422 25.423-11.156-3.586-21.685-9.326-31.312-15.945l-18.022-16.248c-0.19 1.191 1.479 2.797 2.207 3.764 8.71 11.586 18.998 22.315 30.512 31.121l5.516 4.048c0.352 0.252 1.81 1.098 2.028 1.444 0.377 0.601 0.459 12.579 0.588 14.268 0.428 5.606 1.576 11.532 2.989 16.97 6.299 24.252 18.293 46.207 33.062 66.297 24.527 33.364 55.915 60.56 91.473 81.608l-0.059 103.58-50.113-108.71 9.643 68.097-55.166-120.91 11.288 60.189c-3.322-4.96-5.543-11.256-8.177-16.645-13.768-28.166-25.729-57.176-33.943-87.496l-2.193 43.819c-2.302-2.141-4.246-6.257-6.096-8.925-1.244-1.793-3.438-4.143-4.278-6.089-0.325-0.755-0.187-2.919-0.234-3.785l-0.313-14.958-0.963-34.164-1.701-39.479-0.233-8.419c-7e-3 -0.343 0.101-2.115-0.041-2.402-0.32-0.651-3.308-2.515-4.034-3.118l-9.473-8.606c-11.328-11.238-20.981-24.558-27.369-39.211l23.282-43.08c-12.534-13.869-24.534-27.401-34.378-43.387 2.634-16.976 6.308-32.303 13.213-48.095l60.957 28.553c-0.79-1.497-16.726-12.477-19.61-14.77-23.673-18.827-42.938-43.572-54.912-71.447-5.38-12.525-8.929-25.17-12.222-38.357 14.139 18.325 29.85 34.048 47.655 48.839 34.244 28.447 73.336 51.43 111.86 73.532l28.253 15.715c7.68 3.931 15.145 7.544 23.599 9.448 20.414-6.236 39.79-18.649 58.129-29.472 56.6-33.401 111.45-68.875 154.06-119.81z" fill="#FEFEFE"/> <path transform="scale(2.9441)" d="m339.04 370.29c1.144 0.79 5.268 3.037 5.816 4.018 0.03 0.053-0.648 2.938-0.701 3.205-0.829 4.174-1.024 8.408-1.122 12.653-0.361 15.749 2.98 29.456 6.327 44.696-2.821-5.042-4.769-10.729-6.571-16.201-5.467-16.605-7.006-31.111-3.749-48.371z"/> <path transform="scale(2.9441)" d="m683.17 370.75c0.607 0.13 0.256 9e-3 0.995 0.5 4.588 22.3 1.194 47.751-7.884 68.5l-0.392 0.375c-0.454-1.378 0.056-2.714 0.317-4.121l1.846-10.302 1.346-11.367c1.252-13.31 1.061-26.998-1.051-40.213l4.823-3.372z"/> <path transform="scale(2.9441)" d="m517.61 477.48c10.806 5.253 17.595 16.193 24.334 25.687 5.404 7.615 10.711 15.163 15.104 23.422 2.41 4.532 4.198 7.982 2.396 13.164-3.657 10.515-18.717 16.121-27.806 20.716l9.582-9.669c2.435-3.202 4.525-6.517 5.933-10.304 3.113-8.368 0.094-14.789-3.314-22.354l-0.147 0.905c-2.322 14.074-10.52 20.872-21.599 28.82-0.585-1.759-0.407-4.148-0.485-6.02l-0.551-10.372c-1.238-17.837-3.682-36.133-3.447-53.995z"/> <path transform="scale(2.9441)" d="m506.13 478.75 1.224-0.174c-0.087 14.191-2.774 28.762-4.024 42.924l-1.529 18.729c-0.186 2.523 0.201 5.802-0.531 8.18-3.263-2.655-6.289-5.429-9.187-8.481-4.101-4.319-7.75-9.029-11.524-13.628-1.129-1.376-3.196-4.419-4.944-4.692-0.21 0.419-0.34 0.625-0.468 1.054-0.577 1.929-0.264 4.553-5e-3 6.557 1.059 8.169 4.645 15.156 8.788 22.176 2.552 3.821 5.502 6.861 8.744 10.08-6.905-2.573-14.025-9.296-18.663-14.895-4.894-5.908-10.54-13.663-9.51-21.748 1.435-11.276 31.51-38.554 41.629-46.082z"/> <path transform="scale(2.9441)" d="m674.86 376.16c0.802 4.57 0.597 10.134 0.458 14.811-0.547 18.436-4.307 35.241-12.416 51.873-8.863 18.177-23.789 37.706-43.582 44.402-22.031 7.452-44.15 2-64.318-7.83l-0.619 0.33c14.212 8.532 31.874 15.722 48.627 16.626 23.347 1.26 42.414-12.127 59.138-27.009l-0.188 0.542c-1.544 3.727-4.919 7.671-7.662 10.582-7.555 8.018-15.618 13.74-25.662 18.234l-5.047 1.625c-18.562 4.989-39.523-1.533-55.665-10.841-17.477-10.077-34.678-23.683-43.55-42.315-3.669-7.704-5.878-15.851-8.091-24.054 2.745 3.239 4.871 7.135 7.393 10.586 5.482 7.499 11.229 14.095 17.816 20.625 1.731 0.185 7.041-3.28 8.816-4.209l87.694-51.602c12.166-7.428 24.231-15.821 36.858-22.376z"/> <path transform="scale(2.9441)" d="m614.87 435.19c3.386-1.042 10.132 0.075 13.381 1.267 1.371 0.503 2.097 0.714 2.757 2.043-0.878 7.326-5.085 15.439-10.088 20.849-7.449 8.053-15.559 10.648-26.324 11.093-6.56-0.63-12.168-1.993-17.358-6.172 1.327-5.003 3.216-9.335 6.455-13.415 7.32-9.222 19.768-14.34 31.177-15.665z" fill="#FEFEFE"/> <path transform="scale(2.9441)" d="m348.04 376c5.578 2.393 10.818 6.174 16.007 9.325l27.246 16.385 90.762 53.996c10.223-10.23 18.096-20.626 25.895-32.793-1.647 10.895-5.934 21.907-12.029 31.084-10.738 16.168-26.522 27.839-43.574 36.587-11.09 5.69-22.671 10.301-34.916 12.768-10.09 1.758-19.876 0.81-28.566-4.998-7.287-4.871-13.427-11.202-19.281-17.666-1.087-1.202-3.533-3.325-3.832-4.846 9.372 8.577 22.416 18.938 35.103 21.291 13.633 2.53 28.791-2.246 41.239-7.504 5.667-2.394 11.247-4.967 16.304-8.496l-12.165 4.439c-11.173 3.485-24.878 5.843-36.544 4.119-16.242-2.399-27.941-11.704-37.521-24.655-13.056-17.649-19.514-37.464-22.959-58.926-1.564-9.746-2.611-20.27-1.169-30.11z"/> <path transform="scale(2.9441)" d="m402.11 433.75c8.553-1.758 19.476 6.429 26.474 10.611l16.135 9.361c-2.917 3.543-6.826 6.336-10.609 8.878l-1.445 0.846c-6.208 3.553-13.905 4.712-20.804 2.636-5.743-1.728-10.857-5.894-13.604-11.252-2.334-4.554-3.225-9.926-1.494-14.847 1.033-2.939 2.545-4.866 5.347-6.233z" fill="#FEFEFE"/> </svg>